<svg id="Capa_1" fill="#632065" enable-background="new 0 0 512 512" height="30px" viewBox="0 0 512 512" width="30px" xmlns="http://www.w3.org/2000/svg"><g><path d="m84.28 100.53 56.353 4.931c8.253.722 15.528-5.383 16.25-13.635.722-8.253-5.383-15.528-13.635-16.25l-20.949-1.833c38.537-28.396 84.939-43.743 133.701-43.743 40.483 0 80.238 10.873 114.967 31.442 7.128 4.222 16.328 1.866 20.55-5.262 4.222-7.128 1.866-16.328-5.262-20.55h-.001c-39.353-23.309-84.395-35.63-130.254-35.63-55.574 0-108.444 17.589-152.254 50.133l1.714-19.591c.722-8.253-5.383-15.528-13.636-16.25-8.253-.722-15.528 5.383-16.25 13.635l-4.93 56.353c-.722 8.253 5.383 15.528 13.636 16.25z"/><path d="m91.825 355.117c-8.253-.722-15.528 5.383-16.25 13.635l-1.833 20.948c-28.395-38.537-43.742-84.937-43.742-133.7 0-40.483 10.872-80.239 31.441-114.968 4.222-7.128 1.866-16.329-5.262-20.55s-16.329-1.866-20.55 5.262c-23.308 39.355-35.629 84.397-35.629 130.256 0 55.574 17.589 108.444 50.133 152.253l-19.592-1.714c-8.253-.722-15.528 5.383-16.25 13.636s5.383 15.528 13.636 16.25l56.354 4.93c8.253.722 15.528-5.383 16.25-13.636l4.93-56.353c.721-8.252-5.384-15.527-13.636-16.249z"/><path d="m427.72 411.47-56.353-4.93c-8.253-.722-15.528 5.383-16.25 13.636-.722 8.253 5.383 15.528 13.635 16.25l20.948 1.833c-38.537 28.395-84.938 43.741-133.7 43.741-40.484 0-80.239-10.873-114.968-31.442-7.128-4.222-16.328-1.866-20.55 5.262-4.222 7.128-1.866 16.328 5.262 20.55 39.354 23.31 84.396 35.63 130.256 35.63 55.574 0 108.444-17.589 152.254-50.133l-1.714 19.592c-.722 8.253 5.383 15.528 13.636 16.25 8.253.722 15.528-5.383 16.25-13.635l4.93-56.353c.722-8.253-5.383-15.529-13.636-16.251z"/><path d="m461.867 103.747 19.591 1.714c8.253.722 15.528-5.383 16.25-13.635.722-8.253-5.383-15.528-13.635-16.25l-56.354-4.931c-8.253-.722-15.528 5.383-16.25 13.636l-4.93 56.354c-.722 8.253 5.383 15.528 13.636 16.25 8.253.722 15.528-5.383 16.25-13.635l1.833-20.948c28.395 38.536 43.742 84.936 43.742 133.698 0 40.482-10.873 80.237-31.442 114.967-4.222 7.128-1.866 16.329 5.262 20.55s16.329 1.866 20.55-5.262c23.309-39.355 35.63-84.396 35.63-130.255 0-55.573-17.589-108.443-50.133-152.253z"/><path d="m241 221h30v30h-30z"/><path d="m131 356c0 8.284 6.716 15 15 15h220c8.284 0 15-6.716 15-15v-135h-80v45c0 8.284-6.716 15-15 15h-60c-8.284 0-15-6.716-15-15v-45h-80z"/><path d="m360.23 141.257c-2.042-6.126-7.774-10.257-14.23-10.257h-180c-6.456 0-12.188 4.131-14.23 10.257l-16.582 49.743h241.623z"/></g></svg>